<svg width="569.4350219726563px" height="124.64000549316405px" xmlns="http://www.w3.org/2000/svg" viewBox="-34.717510986328136 12.679997253417973 569.4350219726563 124.64000549316405" style="background: rgba(0, 0, 0, 0);" preserveAspectRatio="xMidYMid"><defs><filter id="editing-extrusion" x="-100%" y="-100%" width="300%" height="300%"><feFlood result="color1" flood-color="#444444"></feFlood><feConvolveMatrix order="8,8" divisor="1" kernelMatrix="1 0 0 0 0 0 0 0 0 1 0 0 0 0 0 0 0 0 1 0 0 0 0 0 0 0 0 1 0 0 0 0 0 0 0 0 1 0 0 0 0 0 0 0 0 1 0 0 0 0 0 0 0 0 1 0 0 0 0 0 0 0 0 1" in="SourceAlpha" result="extrude"></feConvolveMatrix><feComposite in="color1" in2="extrude" result="comp-extrude" operator="in"></feComposite><feOffset dx="4" dy="4" in="comp-extrude" result="offset-extrude"></feOffset><feMerge><feMergeNode in="offset-extrude"></feMergeNode><feMergeNode in="SourceGraphic"></feMergeNode></feMerge></filter></defs><g filter="url(#editing-extrusion)"><g transform="translate(48.37817895412445, 101.17512130737305)"><path d="M26.23 0.39L26.23 0.39L26.23 0.39Q25.85 1.10 25.20 1.45L25.20 1.45L25.20 1.45Q24.56 1.80 23.91 1.32L23.91 1.32L23.91 1.32Q23.27 0.84 22.98 0.90L22.98 0.90L22.98 0.90Q22.69 0.97 22.43 1.03L22.43 1.03L22.43 1.03Q21.85 1.10 21.27 0.19L21.27 0.19L21.27 0.19Q20.69-0.71 20.63-1.26L20.63-1.26L20.63-1.26Q20.56-1.80 20.63-2.32L20.63-2.32L20.63-2.32Q20.88-3.48 20.27-4.38L20.27-4.38L20.27-4.38Q19.66-5.29 19.43-5.74L19.43-5.74L19.43-5.74Q19.21-6.19 19.21-7.06L19.21-7.06L19.21-7.06Q19.21-7.93 19.11-8.15L19.11-8.15L19.11-8.15Q19.01-8.38 18.95-8.51L18.95-8.51L18.95-8.51Q18.63-9.09 18.72-10.31L18.72-10.31L18.72-10.31Q18.82-11.54 18.37-12.02L18.37-12.02L18.37-12.02Q17.92-12.50 17.18-12.76L17.18-12.76L17.18-12.76Q16.44-13.02 16.02-12.60L16.02-12.60L16.02-12.60Q15.60-12.18 15.24-11.60L15.24-11.60L15.24-11.60Q14.89-11.02 14.37-10.60L14.37-10.60L14.37-10.60Q13.86-10.18 13.05-10.38L13.05-10.38L13.05-10.38Q12.25-10.57 11.28-9.99L11.28-9.99L11.28-9.99Q10.31-9.41 10.12-8.60L10.12-8.60L10.12-8.60Q9.93-7.80 9.67-6.96L9.67-6.96L9.67-6.96Q9.41-6.12 9.51-5.41L9.51-5.41L9.51-5.41Q9.60-4.71 9.51-4.03L9.51-4.03L9.51-4.03Q9.41-3.35 9.15-2.71L9.15-2.71L9.15-2.71Q8.64-1.10 7.93-0.97L7.93-0.97L7.93-0.97Q7.35-0.90 6.70-0.97L6.70-0.97L6.70-0.97Q5.99 0.32 5.03 0.58L5.03 0.58L5.03 0.58Q2.38 1.16 1.87-0.26L1.87-0.26L1.87-0.26Q1.55-1.10 1.48-2.45L1.48-2.45L1.48-2.45Q1.35-5.16 0.90-6.12L0.90-6.12L0.90-6.12Q0.45-7.09 0.68-8.44L0.68-8.44L0.68-8.44Q0.90-9.80 0.84-11.15L0.84-11.15L0.84-11.15Q0.77-12.50 0.84-13.21L0.84-13.21L0.84-13.21Q0.90-13.92 1.00-14.50L1.00-14.50L1.00-14.50Q1.10-15.08 1.22-15.63L1.22-15.63L1.22-15.63Q1.35-16.18 1.39-16.92L1.39-16.92L1.39-16.92Q1.42-17.66 1.61-18.63L1.61-18.63L1.61-18.63Q1.80-19.59 2.00-20.63L2.00-20.63L2.00-20.63Q2.51-23.20 2.38-24.49L2.38-24.49L2.38-24.49Q2.26-25.78 2.61-26.68L2.61-26.68L2.61-26.68Q2.96-27.59 3.42-28.29L3.42-28.29L3.42-28.29Q4.58-30.16 4.51-31.36L4.51-31.36L4.51-31.36Q4.45-32.55 4.42-33.23L4.42-33.23L4.42-33.23Q4.38-33.90 4.45-34.61L4.45-34.61L4.45-34.61Q4.77-38.09 7.73-45.50L7.73-45.50L7.73-45.50Q7.93-46.21 8.96-46.60L8.96-46.60L8.96-46.60Q9.99-46.99 11.05-46.70L11.05-46.70L11.05-46.70Q12.12-46.41 12.79-46.44L12.79-46.44L12.79-46.44Q13.47-46.47 13.95-46.95L13.95-46.95L13.95-46.95Q14.44-47.44 14.99-47.89L14.99-47.89L14.99-47.89Q15.53-48.34 16.31-48.63L16.31-48.63L16.31-48.63Q17.08-48.92 18.05-48.92L18.05-48.92L18.05-48.92Q19.01-48.92 20.11-48.34L20.11-48.34L20.11-48.34Q21.91-47.37 22.49-46.54L22.49-46.54L22.49-46.54Q23.07-45.70 23.27-45.18L23.27-45.18L23.27-45.18Q23.46-44.67 23.91-43.76L23.91-43.76L23.91-43.76Q24.36-42.86 24.33-42.15L24.33-42.15L24.33-42.15Q24.30-41.44 24.56-40.48L24.56-40.48L24.56-40.48Q24.81-39.51 24.56-38.22L24.56-38.22L24.56-38.22Q24.30-36.93 24.56-35.67L24.56-35.67L24.56-35.67Q24.81-34.42 24.81-33.97L24.81-33.97L24.81-33.97Q24.81-33.52 24.88-33.13L24.88-33.13L24.88-33.13Q24.94-32.03 25.33-31.20L25.33-31.20L25.33-31.20Q25.72-30.29 25.56-28.97L25.56-28.97L25.56-28.97Q25.39-27.65 25.49-26.78L25.49-26.78L25.49-26.78Q25.59-25.91 26.17-25.01L26.17-25.01L26.17-25.01Q27.26-23.27 26.94-21.14L26.94-21.14L26.94-21.14Q26.88-20.56 26.97-19.88L26.97-19.88L26.97-19.88Q27.07-19.21 27.07-18.66L27.07-18.66L27.07-18.66Q27.07-18.11 26.94-17.27L26.94-17.27L26.94-17.27Q26.75-16.05 27.01-14.31L27.01-14.31L27.01-14.31Q27.39-11.09 27.39-9.99L27.39-9.99L27.39-9.99Q27.39-8.89 27.46-8.15L27.46-8.15L27.46-8.15Q27.52-7.41 27.59-6.57L27.59-6.57L27.59-6.57Q27.78-4.38 27.62-2.16L27.62-2.16L27.62-2.16Q27.46 0.06 26.23 0.39ZM16.37-25.59L16.37-25.59L16.37-25.59Q16.50-26.81 16.27-28.62L16.27-28.62L16.27-28.62Q16.05-30.42 16.05-31.29L16.05-31.29L16.05-31.29Q16.05-32.16 15.92-32.81L15.92-32.81L15.92-32.81Q15.73-33.84 14.82-33.06L14.82-33.06L14.82-33.06Q13.79-34.10 13.15-33.13L13.15-33.13L13.15-33.13Q12.70-32.42 12.70-30.81L12.70-30.81L12.70-30.81Q12.57-29.71 12.21-28.81L12.21-28.81L12.21-28.81Q11.86-27.91 11.73-26.81L11.73-26.81L11.73-26.81Q11.54-25.52 11.05-23.65L11.05-23.65L11.05-23.65Q10.57-21.79 11.18-20.88L11.18-20.88L11.18-20.88Q11.79-19.98 12.70-20.24L12.70-20.24L12.70-20.24Q13.60-20.50 14.05-20.53L14.05-20.53L14.05-20.53Q14.50-20.56 14.82-20.63L14.82-20.63L14.82-20.63Q15.60-20.69 16.02-21.24L16.02-21.24L16.02-21.24Q16.44-21.79 16.47-22.20L16.47-22.20L16.47-22.20Q16.50-22.62 16.44-23.07L16.44-23.07L16.44-23.07Q16.24-24.36 16.37-25.59ZM31.16-47.31L31.16-47.31L31.16-47.31Q32.61-47.18 33.74-47.21L33.74-47.21L33.74-47.21Q34.87-47.24 37.13-47.18L37.13-47.18L37.13-47.18Q40.86-46.99 42.41-47.70L42.41-47.70L42.41-47.70Q45.57-49.31 47.50-48.08L47.50-48.08L47.50-48.08Q48.40-47.57 49.24-47.44L49.24-47.44L49.24-47.44Q50.08-47.31 51.63-48.21L51.63-48.21L51.63-48.21Q53.30-48.92 54.40-48.53L54.40-48.53L54.40-48.53Q55.49-48.15 56.01-47.57L56.01-47.57L56.01-47.57Q56.53-46.99 56.69-45.54L56.69-45.54L56.69-45.54Q56.85-44.09 56.75-42.67L56.75-42.67L56.75-42.67Q56.65-41.25 56.46-40.03L56.46-40.03L56.46-40.03Q56.07-36.74 56.17-35.71L56.17-35.71L56.17-35.71Q56.27-34.68 56.43-33.58L56.43-33.58L56.43-33.58Q56.59-32.48 56.53-31.45L56.53-31.45L56.53-31.45Q56.40-28.94 54.46-28.62L54.46-28.62L54.46-28.62Q53.04-28.42 52.40-29.29L52.40-29.29L52.40-29.29Q51.76-30.16 51.34-31.23L51.34-31.23L51.34-31.23Q50.92-32.29 50.50-33.13L50.50-33.13L50.50-33.13Q50.08-33.97 49.31-33.74L49.31-33.74L49.31-33.74Q48.53-33.52 48.34-32.07L48.34-32.07L48.34-32.07Q48.15-30.62 48.21-28.65L48.21-28.65L48.21-28.65Q48.28-26.68 48.47-24.59L48.47-24.59L48.47-24.59Q48.66-22.49 48.73-21.04L48.73-21.04L48.73-21.04Q48.79-19.59 48.89-18.11L48.89-18.11L48.89-18.11Q48.98-16.63 48.98-15.34L48.98-15.34L48.98-15.34Q48.98-12.57 48.21-11.54L48.21-11.54L48.21-11.54Q47.82-11.02 47.82-10.31L47.82-10.31L47.82-10.31Q47.82-9.60 47.99-8.83L47.99-8.83L47.99-8.83Q48.15-8.06 48.34-7.28L48.34-7.28L48.34-7.28Q48.53-6.51 48.53-5.41L48.53-5.41L48.53-5.41Q48.53-2.84 46.21-1.80L46.21-1.80L46.21-1.80Q45.38-1.42 44.67-0.52L44.67-0.52L44.67-0.52Q43.96 0.39 43.60 0.68L43.60 0.68L43.60 0.68Q43.25 0.97 42.76 0.87L42.76 0.87L42.76 0.87Q42.28 0.77 42.06 0.42L42.06 0.42L42.06 0.42Q41.83 0.06 41.64-0.32L41.64-0.32L41.64-0.32Q41.25-1.35 40.54-1.68L40.54-1.68L40.54-1.68Q39.70-1.87 39.54-3.09L39.54-3.09L39.54-3.09Q39.38-4.32 39.35-5.25L39.35-5.25L39.35-5.25Q39.32-6.19 39.19-7.54L39.19-7.54L39.19-7.54Q39.06-8.89 38.35-9.73L38.35-9.73L38.35-9.73Q37.64-10.57 37.19-10.80L37.19-10.80L37.19-10.80Q36.74-11.02 36.61-11.89L36.61-11.89L36.61-11.89Q36.48-12.76 36.64-13.66L36.64-13.66L36.64-13.66Q36.80-14.57 37.06-15.66L37.06-15.66L37.06-15.66Q37.83-18.82 37.90-21.59L37.90-21.59L37.90-21.59Q38.09-26.75 37.90-28.42L37.90-28.42L37.90-28.42Q37.64-31.78 36.09-31.78L36.09-31.78L36.09-31.78Q35.32-31.71 35.00-31.10L35.00-31.10L35.00-31.10Q34.68-30.49 34.29-29.65L34.29-29.65L34.29-29.65Q33.39-27.52 31.00-28.49L31.00-28.49L31.00-28.49Q30.16-28.88 29.94-29.71L29.94-29.71L29.94-29.71Q29.71-30.55 29.68-31.68L29.68-31.68L29.68-31.68Q29.65-32.81 29.62-34.06L29.62-34.06L29.62-34.06Q29.58-35.32 29.17-36.45L29.17-36.45L29.17-36.45Q28.75-37.58 28.36-38.61L28.36-38.61L28.36-38.61Q27.97-39.64 28.04-40.67L28.04-40.67L28.04-40.67Q28.10-41.70 28.52-42.67L28.52-42.67L28.52-42.67Q28.94-43.63 28.78-44.60L28.78-44.60L28.78-44.60Q28.62-45.57 29.17-46.50L29.17-46.50L29.17-46.50Q29.71-47.44 31.16-47.31ZM65.16-44.47L65.16-44.47L65.16-44.47Q65.87-45.12 66.39-45.86L66.39-45.86L66.39-45.86Q66.90-46.60 67.74-47.24L67.74-47.24L67.74-47.24Q70.00-49.11 72.25-48.34L72.25-48.34L72.25-48.34Q75.02-47.31 77.34-47.05L77.34-47.05L77.34-47.05Q79.66-46.79 80.73-45.89L80.73-45.89L80.73-45.89Q81.79-44.99 82.56-43.96L82.56-43.96L82.56-43.96Q84.43-41.51 84.82-38.61L84.82-38.61L84.82-38.61Q84.88-37.51 85.21-37.06L85.21-37.06L85.21-37.06Q86.04-35.64 85.75-33.26L85.75-33.26L85.75-33.26Q85.46-30.87 85.56-29.94L85.56-29.94L85.56-29.94Q85.66-29.00 85.88-28.55L85.88-28.55L85.88-28.55Q86.11-28.10 86.30-27.65L86.30-27.65L86.30-27.65Q86.82-26.43 86.82-25.20L86.82-25.20L86.82-25.20Q86.82-23.65 85.79-22.11L85.79-22.11L85.79-22.11Q85.34-21.53 85.46-19.85L85.46-19.85L85.46-19.85Q85.59-18.18 85.66-16.50L85.66-16.50L85.66-16.50Q85.72-12.31 85.21-11.31L85.21-11.31L85.21-11.31Q84.69-10.31 84.47-10.12L84.47-10.12L84.47-10.12Q84.24-9.93 84.05-9.80L84.05-9.80L84.05-9.80Q83.08-9.35 82.34-7.12L82.34-7.12L82.34-7.12Q81.60-4.90 80.37-3.51L80.37-3.51L80.37-3.51Q79.15-2.13 77.83-1.26L77.83-1.26L77.83-1.26Q76.51-0.39 75.76 0.10L75.76 0.10L75.76 0.10Q75.02 0.58 74.70 1.03L74.70 1.03L74.70 1.03Q74.38 1.48 74.06 1.93L74.06 1.93L74.06 1.93Q73.22 2.96 71.93 2.96L71.93 2.96L71.93 2.96Q69.74 2.96 68.71 1.93L68.71 1.93L68.71 1.93Q68.26 1.35 67.74 0.26L67.74 0.26L67.74 0.26Q66.77-1.48 65.16-2.58L65.16-2.58L65.16-2.58Q63.36-3.80 62.97-6.25L62.97-6.25L62.97-6.25Q62.78-7.09 62.87-7.93L62.87-7.93L62.87-7.93Q62.97-8.77 62.78-10.05L62.78-10.05L62.78-10.05Q62.65-11.34 62.26-12.38L62.26-12.38L62.26-12.38Q61.88-13.41 61.81-14.31L61.81-14.31L61.81-14.31Q61.49-17.02 60.01-17.21L60.01-17.21L60.01-17.21Q58.91-17.34 58.72-20.50L58.72-20.50L58.72-20.50Q58.65-22.11 58.85-23.56L58.85-23.56L58.85-23.56Q59.04-25.01 59.36-26.04L59.36-26.04L59.36-26.04Q59.88-27.91 59.68-30.39L59.68-30.39L59.68-30.39Q59.49-32.87 59.68-34.80L59.68-34.80L59.68-34.80Q60.01-38.41 61.23-40.67L61.23-40.67L61.23-40.67Q61.81-41.64 62.94-42.60L62.94-42.60L62.94-42.60Q64.07-43.57 65.16-44.47ZM69.25-26.04L69.25-26.04L69.25-26.04Q69.42-25.14 69.90-24.59L69.90-24.59L69.90-24.59Q70.38-24.04 70.61-22.88L70.61-22.88L70.61-22.88Q70.83-21.72 70.77-20.33L70.77-20.33L70.77-20.33Q70.71-18.95 70.71-17.69L70.71-17.69L70.71-17.69Q70.71-16.44 70.83-15.44L70.83-15.44L70.83-15.44Q70.96-14.44 71.22-13.60L71.22-13.60L71.22-13.60Q71.93-11.60 73.22-11.60L73.22-11.60L73.22-11.60Q75.22-11.60 75.99-19.34L75.99-19.34L75.99-19.34Q76.25-21.46 76.25-24.78L76.25-24.78L76.25-24.78Q76.25-28.10 75.22-30.52L75.22-30.52L75.22-30.52Q74.19-32.94 72.70-32.94L72.70-32.94L72.70-32.94Q71.29-32.94 70.13-29.78L70.13-29.78L70.13-29.78Q69.09-26.94 69.25-26.04ZM121.04-0.45L121.04-0.45L121.04-0.45Q118.92-0.45 119.11-4.06L119.11-4.06L119.11-4.06Q119.24-6.51 119.14-8.38L119.14-8.38L119.14-8.38Q119.04-10.25 118.34-12.31L118.34-12.31L118.34-12.31Q117.63-14.37 117.37-16.05L117.37-16.05L117.37-16.05Q117.11-17.72 117.76-19.72L117.76-19.72L117.76-19.72Q118.66-22.56 117.88-26.04L117.88-26.04L117.88-26.04Q117.76-26.62 117.76-27.23L117.76-27.23L117.76-27.23Q117.76-27.84 117.69-28.36L117.69-28.36L117.69-28.36Q117.63-29.58 117.05-29.58L117.05-29.58L117.05-29.58Q116.53-29.58 116.34-28.68L116.34-28.68L116.34-28.68Q115.95-26.36 115.44-25.07L115.44-25.07L115.44-25.07Q114.02-21.72 114.34-19.53L114.34-19.53L114.34-19.53Q115.18-16.31 114.21-14.57L114.21-14.57L114.21-14.57Q113.76-13.73 113.12-13.34L113.12-13.34L113.12-13.34Q112.47-12.96 112.28-12.67L112.28-12.67L112.28-12.67Q112.08-12.38 112.12-11.63L112.12-11.63L112.12-11.63Q112.15-10.89 111.76-10.44L111.76-10.44L111.76-10.44Q111.38-9.99 111.28-9.47L111.28-9.47L111.28-9.47Q111.18-8.96 111.05-8.51L111.05-8.51L111.05-8.51Q110.73-7.35 109.63-7.48L109.63-7.48L109.63-7.48Q108.54-7.61 108.12-8.83L108.12-8.83L108.12-8.83Q107.70-10.05 107.48-11.67L107.48-11.67L107.48-11.67Q107.25-13.28 107.02-14.89L107.02-14.89L107.02-14.89Q106.80-16.50 106.19-17.34L106.19-17.34L106.19-17.34Q105.57-18.18 105.35-19.01L105.35-19.01L105.35-19.01Q105.12-19.85 104.99-20.75L104.99-20.75L104.99-20.75Q104.67-22.95 104.16-23.78L104.16-23.78L104.16-23.78Q103.71-24.56 103.45-26.68L103.45-26.68L103.45-26.68Q103.19-28.81 102.96-29.58L102.96-29.58L102.96-29.58Q102.74-30.36 102.16-30.36L102.16-30.36L102.16-30.36Q101.51-30.29 101.45-29.39L101.45-29.39L101.45-29.39Q101.38-28.49 101.64-27.91L101.64-27.91L101.64-27.91Q101.90-27.33 101.71-25.85L101.71-25.85L101.71-25.85Q101.51-24.36 101.77-23.27L101.77-23.27L101.77-23.27Q102.03-22.17 102.29-21.30L102.29-21.30L102.29-21.30Q102.54-20.43 102.74-19.46L102.74-19.46L102.74-19.46Q103.38-16.82 103.03-14.99L103.03-14.99L103.03-14.99Q102.67-13.15 102.61-12.15L102.61-12.15L102.61-12.15Q102.54-11.15 101.80-10.70L101.80-10.70L101.80-10.70Q101.06-10.25 100.90-9.76L100.90-9.76L100.90-9.76Q100.74-9.28 100.68-8.67L100.68-8.67L100.68-8.67Q100.61-8.06 100.55-7.38L100.55-7.38L100.55-7.38Q100.48-6.70 100.10-5.74L100.10-5.74L100.10-5.74Q99.26-3.67 99.55-2.71L99.55-2.71L99.55-2.71Q99.84-1.74 99.23-0.64L99.23-0.64L99.23-0.64Q98.61 0.45 97.49 0.55L97.49 0.55L97.49 0.55Q96.36 0.64 95.68 0.13L95.68 0.13L95.68 0.13Q95.00-0.39 94.49-1.16L94.49-1.16L94.49-1.16Q92.36-4.64 92.81-9.02L92.81-9.02L92.81-9.02Q92.88-9.99 92.97-10.96L92.97-10.96L92.97-10.96Q93.07-11.92 92.94-13.34L92.94-13.34L92.94-13.34Q92.75-16.82 91.33-18.82L91.33-18.82L91.33-18.82Q90.36-20.17 90.23-22.11L90.23-22.11L90.23-22.11Q89.91-25.46 90.62-26.88L90.62-26.88L90.62-26.88Q90.94-27.52 90.94-28.91L90.94-28.91L90.94-28.91Q90.94-30.29 90.91-30.91L90.91-30.91L90.91-30.91Q90.88-31.52 90.98-31.81L90.98-31.81L90.98-31.81Q91.07-32.10 91.10-32.84L91.10-32.84L91.10-32.84Q91.14-33.58 91.14-34.55L91.14-34.55L91.14-34.55Q91.07-36.29 90.69-37.74L90.69-37.74L90.69-37.74Q90.30-39.19 90.20-40.25L90.20-40.25L90.20-40.25Q90.11-41.31 90.23-42.35L90.23-42.35L90.23-42.35Q90.43-44.67 91.04-45.63L91.04-45.63L91.04-45.63Q91.65-46.60 92.17-46.76L92.17-46.76L92.17-46.76Q92.68-46.92 93.33-46.92L93.33-46.92L93.33-46.92Q93.97-46.92 94.42-47.15L94.42-47.15L94.42-47.15Q94.88-47.37 95.39-47.57L95.39-47.57L95.39-47.57Q96.49-48.02 97.52-47.63L97.52-47.63L97.52-47.63Q98.55-47.24 99.29-47.37L99.29-47.37L99.29-47.37Q100.03-47.50 100.68-47.70L100.68-47.70L100.68-47.70Q102.35-48.34 103.22-48.02L103.22-48.02L103.22-48.02Q104.09-47.70 104.80-46.92L104.80-46.92L104.80-46.92Q105.51-46.15 105.61-45.67L105.61-45.67L105.61-45.67Q105.70-45.18 105.90-44.99L105.90-44.99L105.90-44.99Q106.09-44.79 106.35-44.60L106.35-44.60L106.35-44.60Q106.86-44.15 106.86-43.18L106.86-43.18L106.86-43.18Q106.86-41.77 107.64-39.38L107.64-39.38L107.64-39.38Q108.99-34.87 110.21-34.48L110.21-34.48L110.21-34.48Q110.47-34.42 111.12-34.87L111.12-34.87L111.12-34.87Q111.76-35.32 112.02-36.22L112.02-36.22L112.02-36.22Q112.41-37.77 112.28-38.58L112.28-38.58L112.28-38.58Q112.15-39.38 112.50-39.83L112.50-39.83L112.50-39.83Q112.86-40.28 112.89-40.67L112.89-40.67L112.89-40.67Q112.92-41.06 112.99-41.70L112.99-41.70L112.99-41.70Q113.05-42.35 113.24-43.18L113.24-43.18L113.24-43.18Q113.76-45.31 114.73-46.41L114.73-46.41L114.73-46.41Q115.69-47.50 116.72-47.70L116.72-47.70L116.72-47.70Q117.76-47.89 118.82-47.79L118.82-47.79L118.82-47.79Q119.88-47.70 120.95-47.60L120.95-47.60L120.95-47.60Q122.01-47.50 123.11-47.95L123.11-47.95L123.11-47.95Q126.01-49.24 127.10-48.02L127.10-48.02L127.10-48.02Q127.42-47.70 127.71-47.57L127.71-47.57L127.71-47.57Q128.00-47.44 128.26-47.31L128.26-47.31L128.26-47.31Q128.78-46.92 128.87-46.12L128.87-46.12L128.87-46.12Q128.97-45.31 129.10-45.02L129.10-45.02L129.10-45.02Q129.23-44.73 129.36-44.47L129.36-44.47L129.36-44.47Q130.07-42.80 130.26-38.67L130.26-38.67L130.26-38.67Q130.45-31.90 130.00-30.94L130.00-30.94L130.00-30.94Q130.45-28.29 129.55-27.20L129.55-27.20L129.55-27.20Q129.36-27.01 129.16-26.81L129.16-26.81L129.16-26.81Q128.00-25.65 127.75-23.72L127.75-23.72L127.75-23.72Q127.62-22.95 127.78-22.43L127.78-22.43L127.78-22.43Q127.94-21.91 127.94-21.33L127.94-21.33L127.94-21.33Q127.94-20.75 127.91-20.30L127.91-20.30L127.91-20.30Q127.88-19.85 127.88-19.34L127.88-19.34L127.88-19.34Q127.75-17.47 127.84-16.63L127.84-16.63L127.84-16.63Q127.94-15.79 127.84-15.40L127.84-15.40L127.84-15.40Q127.75-15.02 127.62-14.70L127.62-14.70L127.62-14.70Q127.29-13.73 127.42-13.05L127.42-13.05L127.42-13.05Q127.55-12.38 127.42-11.99L127.42-11.99L127.42-11.99Q127.29-11.60 127.10-11.21L127.10-11.21L127.10-11.21Q126.59-10.12 126.68-8.41L126.68-8.41L126.68-8.41Q126.78-6.70 126.55-5.54L126.55-5.54L126.55-5.54Q126.33-4.38 126.33-3.16L126.33-3.16L126.33-3.16Q126.20 0.26 125.43 0L125.43 0L125.43 0Q125.10-0.13 124.88 0.32L124.88 0.32L124.88 0.32Q124.65 0.77 124.49 1.48L124.49 1.48L124.49 1.48Q124.33 2.19 123.62 1.97L123.62 1.97L123.62 1.97Q122.91 1.74 122.69 0.90L122.69 0.90L122.69 0.90Q122.46 0.06 122.11-0.19L122.11-0.19L122.11-0.19Q121.75-0.45 121.04-0.45ZM149.21-35.64L149.21-35.64L149.21-35.64Q147.02-35.06 148.37-28.17L148.37-28.17L148.37-28.17Q148.82-26.30 148.85-25.04L148.85-25.04L148.85-25.04Q148.89-23.78 148.50-22.30L148.50-22.30L148.50-22.30Q148.11-20.82 148.11-19.92L148.11-19.92L148.11-19.92Q148.11-19.01 147.86-17.79L147.86-17.79L147.86-17.79Q147.92-16.44 147.82-15.05L147.82-15.05L147.82-15.05Q147.73-13.66 147.66-12.38L147.66-12.38L147.66-12.38Q147.47-9.22 147.60-8.64L147.60-8.64L147.60-8.64Q147.73-8.06 148.02-7.90L148.02-7.90L148.02-7.90Q148.31-7.73 148.69-7.61L148.69-7.61L148.69-7.61Q149.60-7.28 149.79-6.77L149.79-6.77L149.79-6.77Q149.98-6.25 149.95-5.32L149.95-5.32L149.95-5.32Q149.92-4.38 149.72-3.35L149.72-3.35L149.72-3.35Q149.14-0.90 148.11-0.19L148.11-0.19L148.11-0.19Q147.53 0.19 146.92 0.06L146.92 0.06L146.92 0.06Q146.31-0.06 145.60-0.19L145.60-0.19L145.60-0.19Q143.41-0.58 141.86 0.19L141.86 0.19L141.86 0.19Q138.06 2.26 136.00 0.19L136.00 0.19L136.00 0.19Q135.16-0.64 134.96-2.38L134.96-2.38L134.96-2.38Q134.71-5.54 135.32-6.45L135.32-6.45L135.32-6.45Q135.93-7.35 136.35-7.57L136.35-7.57L136.35-7.57Q136.77-7.80 137.09-7.99L137.09-7.99L137.09-7.99Q137.80-8.31 137.80-9.09L137.80-9.09L137.80-9.09Q137.80-9.67 137.96-10.34L137.96-10.34L137.96-10.34Q138.12-11.02 138.25-11.79L138.25-11.79L138.25-11.79Q138.57-13.66 137.93-14.89L137.93-14.89L137.93-14.89Q137.22-16.31 137.32-17.21L137.32-17.21L137.32-17.21Q137.41-18.11 137.48-18.82L137.48-18.82L137.74-20.37L137.74-20.37Q137.87-22.24 137.67-23.56L137.67-23.56L137.67-23.56Q137.48-24.88 137.38-26.33L137.38-26.33L137.38-26.33Q137.29-27.78 137.32-29.07L137.32-29.07L137.32-29.07Q137.35-30.36 137.35-31.52L137.35-31.52L137.35-31.52Q137.35-34.22 136.80-34.74L136.80-34.74L136.80-34.74Q136.25-35.26 135.80-35.29L135.80-35.29L135.80-35.29Q135.35-35.32 134.90-35.32L134.90-35.32L134.90-35.32Q133.68-35.19 133.35-35.71L133.35-35.71L133.35-35.71Q132.64-36.42 132.64-37.51L132.64-37.51L132.64-37.51Q132.64-38.61 133.06-39.19L133.06-39.19L133.06-39.19Q133.48-39.77 133.61-40.51L133.61-40.51L133.61-40.51Q133.74-41.25 133.74-42.09L133.74-42.09L133.74-42.09Q133.87-44.02 133.61-44.63L133.61-44.63L133.61-44.63Q133.35-45.25 133.26-45.73L133.26-45.73L133.26-45.73Q133.16-46.21 133.16-46.66L133.16-46.66L133.16-46.66Q133.16-48.53 135.80-48.60L135.80-48.60L135.80-48.60Q137.41-48.66 139.09-48.57L139.09-48.57L139.09-48.57Q140.77-48.47 141.73-48.66L141.73-48.66L141.73-48.66Q145.08-49.31 147.11-49.18L147.11-49.18L147.11-49.18Q149.14-49.05 149.72-48.86L149.72-48.86L149.72-48.86Q151.34-48.21 151.46-45.31L151.46-45.31L151.46-45.31Q151.53-43.96 151.53-42.47L151.53-42.47L151.53-42.47Q151.53-40.99 151.66-39.45L151.66-39.45L151.66-39.45Q151.92-36.22 149.21-35.64ZM180.50-38.77L180.50-38.77L180.50-38.77Q180.66-38.09 180.63-37.22L180.63-37.22L180.63-37.22Q180.60-36.35 180.15-34.77L180.15-34.77L180.15-34.77Q179.70-33.19 179.86-31.94L179.86-31.94L179.86-31.94Q180.02-30.68 180.21-30.26L180.21-30.26L180.21-30.26Q180.40-29.84 180.50-29.26L180.50-29.26L180.50-29.26Q180.60-28.68 180.47-28.04L180.47-28.04L180.47-28.04Q180.15-26.55 178.60-25.72L178.60-25.72L178.60-25.72Q177.12-25.07 176.05-24.33L176.05-24.33L176.05-24.33Q174.99-23.59 173.83-23.20L173.83-23.20L173.83-23.20Q173.57-22.43 173.35-21.79L173.35-21.79L173.35-21.79Q173.12-21.14 172.61-20.79L172.61-20.79L172.61-20.79Q172.09-20.43 171.45-20.66L171.45-20.66L171.45-20.66Q170.80-20.88 170.93-22.01L170.93-22.01L170.93-22.01Q171.06-23.14 170.58-23.56L170.58-23.56L170.58-23.56Q170.09-23.98 169.80-24.23L169.80-24.23L169.80-24.23Q169.51-24.49 169.25-24.75L169.25-24.75L169.25-24.75Q169.00-25.01 168.87-25.39L168.87-25.39L168.87-25.39Q168.54-26.55 169.03-27.46L169.03-27.46L169.03-27.46Q169.51-28.36 169.54-28.81L169.54-28.81L169.54-28.81Q169.58-29.26 169.51-29.78L169.51-29.78L169.51-29.78Q169.32-31.07 169.48-31.97L169.48-31.97L169.48-31.97Q169.64-32.87 169.03-33.52L169.03-33.52L169.03-33.52Q168.42-34.16 167.67-34.10L167.67-34.10L167.67-34.10Q166.93-34.03 166.45-32.10L166.45-32.10L166.45-32.10Q165.97-30.16 165.71-27.30L165.71-27.30L165.71-27.30Q165.45-24.43 165.42-21.08L165.42-21.08L165.42-21.08Q165.39-17.72 165.71-14.82L165.71-14.82L165.71-14.82Q166.35-8.19 168.03-8.06L168.03-8.06L168.03-8.06Q169.71-7.93 170.61-8.54L170.61-8.54L170.61-8.54Q171.51-9.15 172.03-9.93L172.03-9.93L172.03-9.93Q172.54-10.70 172.83-11.38L172.83-11.38L172.83-11.38Q173.12-12.05 173.51-12.18L173.51-12.18L173.51-12.18Q176.21-13.08 177.31-11.09L177.31-11.09L177.31-11.09Q177.76-10.25 177.76-8.70L177.76-8.70L177.76-8.70Q177.76-7.15 177.54-6.41L177.54-6.41L177.54-6.41Q177.31-5.67 177.02-5.19L177.02-5.19L177.02-5.19Q176.73-4.71 176.47-4.32L176.47-4.32L176.47-4.32Q176.21-3.93 176.09-3.32L176.09-3.32L176.09-3.32Q175.96-2.71 175.51-2.19L175.51-2.19L175.51-2.19Q175.05-1.68 174.41-1.29L174.41-1.29L174.41-1.29Q173.06-0.58 172.15-0.58L172.15-0.58L172.15-0.58Q168.61-0.58 166.87 0.71L166.87 0.71L166.87 0.71Q165.77 1.61 164.68 1.55L164.68 1.55L164.68 1.55Q163.07 1.48 162.49 0.90L162.49 0.90L162.49 0.90Q161.91 0.32 160.94-0.26L160.94-0.26L160.94-0.26Q159.97-0.84 159.81-1.71L159.81-1.71L159.81-1.71Q159.65-2.58 159.20-3.09L159.20-3.09L159.20-3.09Q158.75-3.61 158.23-4.38L158.23-4.38L158.23-4.38Q156.88-6.12 156.88-8.51L156.88-8.51L156.88-8.51Q156.88-9.99 156.94-10.96L156.94-10.96L156.94-10.96Q157.01-11.92 156.94-12.63L156.94-12.63L156.94-12.63Q156.94-13.99 155.78-15.44L155.78-15.44L155.78-15.44Q154.62-16.89 154.43-17.95L154.43-17.95L154.43-17.95Q154.24-19.01 154.08-19.95L154.08-19.95L154.08-19.95Q153.91-20.88 154.04-21.79L154.04-21.79L154.04-21.79Q154.17-22.69 154.30-23.65L154.30-23.65L154.30-23.65Q154.43-24.62 154.78-25.33L154.78-25.33L154.78-25.33Q155.14-26.04 155.04-26.75L155.04-26.75L155.04-26.75Q154.95-27.46 155.17-27.91L155.17-27.91L155.17-27.91Q155.40-28.36 155.59-28.88L155.59-28.88L155.59-28.88Q156.11-30.29 155.46-31.68L155.46-31.68L155.46-31.68Q154.82-33.06 154.78-33.90L154.78-33.90L154.78-33.90Q154.75-34.74 154.95-35.42L154.95-35.42L154.95-35.42Q155.14-36.09 155.36-36.71L155.36-36.71L155.36-36.71Q155.59-37.32 155.59-38.29L155.59-38.29L155.59-38.29Q155.59-39.25 155.94-40.54L155.94-40.54L155.94-40.54Q156.30-41.83 157.75-42.18L157.75-42.18L157.75-42.18Q159.20-42.54 159.39-43.18L159.39-43.18L159.39-43.18Q159.59-43.83 159.84-44.54L159.84-44.54L159.84-44.54Q160.04-45.25 161.07-46.12L161.07-46.12L161.07-46.12Q162.10-46.99 164.07-47.28L164.07-47.28L164.07-47.28Q166.03-47.57 166.90-47.31L166.90-47.31L166.90-47.31Q167.77-47.05 168.48-46.25L168.48-46.25L168.48-46.25Q169.19-45.44 169.83-45.34L169.83-45.34L169.83-45.34Q170.48-45.25 171.19-45.38L171.19-45.38L171.19-45.38Q174.54-45.83 177.89-43.96L177.89-43.96L177.89-43.96Q179.05-43.31 179.44-41.96L179.44-41.96L179.44-41.96Q179.82-40.61 180.08-40.03L180.08-40.03L180.08-40.03Q180.34-39.45 180.50-38.77ZM234.80-45.28L234.80-45.28L234.80-45.28Q235.45-44.92 235.67-44.57L235.67-44.57L235.67-44.57Q235.90-44.21 236.22-43.86L236.22-43.86L236.22-43.86Q236.54-43.51 236.54-43.18L236.54-43.18L236.54-43.18Q236.54-42.86 236.48-42.47L236.48-42.47L236.48-42.47Q236.41-42.09 236.32-41.73L236.32-41.73L236.32-41.73Q236.22-41.38 236.38-40.93L236.38-40.93L236.38-40.93Q236.54-40.48 236.09-39.74L236.09-39.74L236.09-39.74Q235.64-38.99 235.00-37.45L235.00-37.45L235.00-37.45Q234.35-35.90 234.06-33.97L234.06-33.97L234.06-33.97Q233.77-32.03 233.58-30.13L233.58-30.13L233.58-30.13Q233.38-28.23 233.22-26.46L233.22-26.46L233.22-26.46Q233.06-24.69 232.58-23.27L232.58-23.27L232.58-23.27Q232.10-21.85 231.81-20.14L231.81-20.14L231.81-20.14Q231.52-18.43 231.26-16.63L231.26-16.63L231.26-16.63Q230.61-12.05 230.16-10.70L230.16-10.70L230.16-10.70Q229.71-9.35 229.71-8.89L229.71-8.89L229.71-8.89Q229.71-8.44 229.58-7.80L229.58-7.80L229.58-7.80Q229.26-6.12 228.13-4.67L228.13-4.67L228.13-4.67Q227.00-3.22 226.75-2.38L226.75-2.38L226.75-2.38Q226.49-1.55 226.26-0.81L226.26-0.81L226.26-0.81Q226.04-0.06 225.71 0.42L225.71 0.42L225.71 0.42Q225.39 0.90 224.78 0.84L224.78 0.84L224.78 0.84Q224.17 0.77 223.94 0.64L223.94 0.64L223.94 0.64Q223.72 0.52 223.52 0.39L223.52 0.39L223.52 0.39Q222.88-0.32 221.88-0.26L221.88-0.26L221.88-0.26Q220.88-0.19 220.43-0.26L220.43-0.26L220.43-0.26Q219.40-0.32 219.11-1.10L219.11-1.10L219.11-1.10Q218.82-1.87 218.59-3.54L218.59-3.54L218.59-3.54Q218.37-5.22 218.11-6.96L218.11-6.96L218.11-6.96Q217.34-11.28 216.30-11.28L216.30-11.28L216.30-11.28Q215.72-11.28 215.66-10.38L215.66-10.38L215.66-10.38Q215.60-9.47 215.56-8.89L215.56-8.89L215.56-8.89Q215.53-8.31 215.40-7.54L215.40-7.54L215.40-7.54Q215.27-6.77 214.89-5.22L214.89-5.22L214.89-5.22Q214.50-3.67 213.98-2.26L213.98-2.26L213.98-2.26Q212.63 1.16 210.76 1.16L210.76 1.16L210.76 1.16Q209.28 1.16 208.63 0.06L208.63 0.06L208.63 0.06Q208.38-0.39 208.12-0.87L208.12-0.87L208.12-0.87Q207.86-1.35 207.18-1.71L207.18-1.71L207.18-1.71Q206.51-2.06 206.06-2.45L206.06-2.45L206.06-2.45Q205.61-2.84 205.35-3.48L205.35-3.48L205.35-3.48Q204.96-4.32 204.74-6.48L204.74-6.48L204.74-6.48Q204.51-8.64 204.12-9.86L204.12-9.86L204.12-9.86Q203.74-11.09 203.29-12.25L203.29-12.25L203.29-12.25Q202.25-15.28 202.29-16.69L202.29-16.69L202.29-16.69Q202.32-18.11 202.16-19.14L202.16-19.14L202.16-19.14Q202.00-20.17 201.74-21.14L201.74-21.14L201.74-21.14Q201.48-22.11 201.13-23.14L201.13-23.14L201.13-23.14Q200.77-24.17 200.48-25.36L200.48-25.36L200.48-25.36Q200.19-26.55 199.84-27.62L199.84-27.62L199.84-27.62Q199.48-28.68 199.16-29.65L199.16-29.65L199.16-29.65Q198.52-31.90 199.13-33.58L199.13-33.58L199.13-33.58Q199.74-35.26 199.29-37.00L199.29-37.00L199.29-37.00Q198.84-38.74 198.16-40.44L198.16-40.44L198.16-40.44Q197.48-42.15 197.00-43.60L197.00-43.60L197.00-43.60Q196.52-45.05 197.10-45.99L197.10-45.99L197.10-45.99Q197.68-46.92 198.74-47.12L198.74-47.12L198.74-47.12Q199.80-47.31 200.90-47.15L200.90-47.15L200.90-47.15Q202.00-46.99 203.03-46.73L203.03-46.73L203.03-46.73Q204.64-46.34 205.25-46.70L205.25-46.70L205.25-46.70Q205.86-47.05 206.25-47.21L206.25-47.21L206.25-47.21Q206.64-47.37 207.15-47.37L207.15-47.37L207.15-47.37Q207.67-47.37 208.47-46.92L208.47-46.92L208.47-46.92Q209.28-46.47 209.57-45.89L209.57-45.89L209.57-45.89Q209.86-45.31 209.96-44.54L209.96-44.54L209.96-44.54Q210.05-43.76 210.05-42.83L210.05-42.83L210.05-42.83Q210.05-41.89 210.50-40.09L210.50-40.09L210.50-40.09Q211.92-34.74 210.96-30.55L210.96-30.55L210.96-30.55Q210.38-28.10 210.76-26.52L210.76-26.52L210.76-26.52Q211.15-24.94 211.86-25.07L211.86-25.07L211.86-25.07Q212.50-25.20 212.70-26.07L212.70-26.07L212.70-26.07Q212.89-26.94 212.92-28.26L212.92-28.26L212.92-28.26Q212.95-29.58 212.95-31.10L212.95-31.10L212.95-31.10Q212.95-32.61 213.21-33.90L213.21-33.90L213.21-33.90Q213.47-35.19 213.60-35.90L213.60-35.90L213.60-35.90Q213.73-36.61 213.86-37.00L213.86-37.00L213.86-37.00Q214.18-37.77 214.69-37.96L214.69-37.96L214.69-37.96Q214.44-44.99 216.82-47.24L216.82-47.24L216.82-47.24Q217.27-47.63 217.88-47.63L217.88-47.63L217.88-47.63Q218.50-47.63 219.08-46.79L219.08-46.79L219.08-46.79Q219.66-45.96 219.72-43.83L219.72-43.83L219.72-43.83Q219.85-40.41 220.37-37.19L220.37-37.19L220.37-37.19Q220.88-33.97 221.11-32.48L221.11-32.48L221.11-32.48Q221.33-31.00 221.59-29.78L221.59-29.78L221.59-29.78Q222.43-24.75 223.46-28.23L223.46-28.23L223.46-28.23Q224.30-31.20 224.30-33.52L224.30-33.52L224.30-33.52Q224.30-35.84 223.97-36.16L223.97-36.16L223.97-36.16Q222.56-37.45 223.97-39.77L223.97-39.77L223.97-39.77Q224.55-40.80 224.62-42.35L224.62-42.35L224.62-42.35Q224.88-45.44 225.10-45.99L225.10-45.99L225.10-45.99Q225.33-46.54 225.94-47.02L225.94-47.02L225.94-47.02Q226.55-47.50 227.26-47.76L227.26-47.76L227.26-47.76Q229.07-48.47 230.23-47.12L230.23-47.12L230.23-47.12Q230.87-46.28 232.29-46.21L232.29-46.21L232.29-46.21Q233.71-46.15 233.93-45.89L233.93-45.89L233.93-45.89Q234.16-45.63 234.80-45.28ZM241.51 0.77L241.51 0.77L241.51 0.77Q240.86 0.97 240.06 0.68L240.06 0.68L240.06 0.68Q239.25 0.39 238.93-0.42L238.93-0.42L238.93-0.42Q238.61-1.22 238.51-2.29L238.51-2.29L238.51-2.29Q238.41-3.35 238.48-4.58L238.48-4.58L238.48-4.58Q238.54-5.80 238.54-6.96L238.54-6.96L238.54-6.96Q238.54-9.54 237.70-10.25L237.70-10.25L237.70-10.25Q235.96-11.54 236.29-16.82L236.29-16.82L236.29-16.82Q236.61-19.85 236.99-21.66L236.99-21.66L236.99-21.66Q237.64-24.62 237.61-26.68L237.61-26.68L237.61-26.68Q237.57-28.75 237.74-29.91L237.74-29.91L237.74-29.91Q237.90-31.07 238.12-31.84L238.12-31.84L238.12-31.84Q238.35-32.61 238.67-33.45L238.67-33.45L238.67-33.45Q238.99-34.29 239.25-36.22L239.25-36.22L239.25-36.22Q239.89-41.06 240.41-42.22L240.41-42.22L240.41-42.22Q241.12-43.83 242.12-45.54L242.12-45.54L242.12-45.54Q243.12-47.24 243.76-47.82L243.76-47.82L243.76-47.82Q245.24-48.92 248.02-48.02L248.02-48.02L248.02-48.02Q250.08-47.31 251.85-47.57L251.85-47.57L251.85-47.57Q253.62-47.82 254.56-47.79L254.56-47.79L254.56-47.79Q255.49-47.76 256.65-47.08L256.65-47.08L256.65-47.08Q257.81-46.41 258.46-45.47L258.46-45.47L258.46-45.47Q259.10-44.54 259.36-43.44L259.36-43.44L259.36-43.44Q259.81-41.57 259.42-38.70L259.42-38.70L259.42-38.70Q259.04-35.84 259.13-34.06L259.13-34.06L259.13-34.06Q259.23-32.29 259.91-30.71L259.91-30.71L259.91-30.71Q260.58-29.13 260.81-28.20L260.81-28.20L260.81-28.20Q261.04-27.26 261.20-26.33L261.20-26.33L261.20-26.33Q261.36-25.39 261.45-24.33L261.45-24.33L261.45-24.33Q261.55-23.27 261.84-21.91L261.84-21.91L261.84-21.91Q262.13-20.56 262.16-19.75L262.16-19.75L262.16-19.75Q262.20-18.95 262.13-18.43L262.13-18.43L262.13-18.43Q262.07-17.92 261.97-17.50L261.97-17.50L261.97-17.50Q261.87-17.08 262.03-16.21L262.03-16.21L262.03-16.21Q262.20-15.34 262.03-14.31L262.03-14.31L262.03-14.31Q261.87-13.28 261.68-12.31L261.68-12.31L261.68-12.31Q260.97-9.35 261.10-8.12L261.10-8.12L261.10-8.12Q261.36-5.93 261.10-5.00L261.10-5.00L261.10-5.00Q260.84-4.06 260.62-3.48L260.62-3.48L260.62-3.48Q260.39-2.90 260.10-1.87L260.10-1.87L260.10-1.87Q259.81-0.84 258.91 0L258.91 0L258.91 0Q258.01 0.84 257.20 0.52L257.20 0.52L257.20 0.52Q256.39 0.19 256.17-0.42L256.17-0.42L256.17-0.42Q255.94-1.03 255.78-1.68L255.78-1.68L255.78-1.68Q255.62-2.32 255.40-2.84L255.40-2.84L255.40-2.84Q255.17-3.35 254.59-3.42L254.59-3.42L254.59-3.42Q253.56-3.54 253.49-4.61L253.49-4.61L253.49-4.61Q253.43-5.67 253.53-6.48L253.53-6.48L253.53-6.48Q253.62-7.28 253.43-8.12L253.43-8.12L253.43-8.12Q253.24-8.96 252.79-9.73L252.79-9.73L252.79-9.73Q251.63-11.73 250.08-11.92L250.08-11.92L250.08-11.92Q247.76-12.25 246.86-9.67L246.86-9.67L246.86-9.67Q246.66-9.02 246.57-7.96L246.57-7.96L246.57-7.96Q246.47-6.90 246.05-6.06L246.05-6.06L246.05-6.06Q245.63-5.22 245.15-4.64L245.15-4.64L245.15-4.64Q244.66-4.06 244.25-3.58L244.25-3.58L244.25-3.58Q243.83-3.09 243.70-2.38L243.70-2.38L243.70-2.38Q243.18 0.39 241.51 0.77ZM247.24-26.23L247.24-26.23L247.24-26.23Q245.95-22.75 246.92-20.69L246.92-20.69L246.92-20.69Q247.56-19.53 248.60-19.46L248.60-19.46L248.60-19.46Q250.46-19.27 250.82-19.75L250.82-19.75L250.82-19.75Q251.17-20.24 251.66-20.79L251.66-20.79L251.66-20.79Q252.14-21.33 252.01-22.46L252.01-22.46L252.01-22.46Q251.88-23.59 251.82-24.46L251.82-24.46L251.82-24.46Q251.75-25.33 251.21-26.43L251.21-26.43L251.21-26.43Q250.66-27.52 250.46-28.78L250.46-28.78L250.46-28.78Q250.27-30.04 250.21-31.20L250.21-31.20L250.21-31.20Q249.95-33.77 249.05-33.77L249.05-33.77L249.05-33.77Q248.40-33.77 248.24-33.10L248.24-33.10L248.24-33.10Q248.08-32.42 248.02-31.32L248.02-31.32L248.02-31.32Q247.95-27.97 247.24-26.23ZM282.56-46.34L282.56-46.34L284.63-46.47L284.63-46.47Q286.82-46.47 287.75-45.76L287.75-45.76L287.75-45.76Q288.69-45.05 289.17-44.47L289.17-44.47L289.17-44.47Q289.65-43.89 290.04-43.28L290.04-43.28L290.04-43.28Q290.43-42.67 291.10-42.02L291.10-42.02L291.10-42.02Q291.78-41.38 291.78-40.51L291.78-40.51L291.78-40.51Q291.78-39.64 292.26-39.12L292.26-39.12L292.26-39.12Q292.75-38.61 292.75-37.45L292.75-37.45L292.75-37.45Q292.75-36.29 292.71-35.22L292.71-35.22L292.71-35.22Q292.68-34.16 292.49-33.48L292.49-33.48L292.49-33.48Q292.29-32.81 292.29-32.13L292.29-32.13L292.29-32.13Q292.29-31.45 292.58-30.91L292.58-30.91L292.58-30.91Q292.88-30.36 292.65-28.26L292.65-28.26L292.65-28.26Q292.42-26.17 291.94-24.04L291.94-24.04L291.94-24.04Q291.46-21.91 290.68-20.37L290.68-20.37L290.68-20.37Q289.14-17.47 285.66-15.79L285.66-15.79L285.66-15.79Q285.98-15.02 286.40-14.08L286.40-14.08L286.40-14.08Q286.82-13.15 287.20-12.18L287.20-12.18L287.20-12.18Q288.04-9.80 288.04-8.73L288.04-8.73L288.04-8.73Q288.04-7.67 288.14-7.19L288.14-7.19L288.14-7.19Q288.23-6.70 288.36-6.45L288.36-6.45L288.36-6.45Q288.49-6.19 288.72-6.06L288.72-6.06L288.72-6.06Q288.94-5.93 289.39-5.58L289.39-5.58L289.39-5.58Q289.85-5.22 290.10-4.38L290.10-4.38L290.10-4.38Q290.36-3.54 290.36-2.64L290.36-2.64L290.36-2.64Q290.36-0.58 289.88-0.10L289.88-0.10L289.88-0.10Q289.39 0.39 288.85 0.55L288.85 0.55L288.85 0.55Q288.30 0.71 287.72 0.77L287.72 0.77L287.72 0.77Q286.24 0.97 285.85 0.39L285.85 0.39L285.85 0.39Q285.33-0.13 285.30-0.68L285.30-0.68L285.30-0.68Q285.27-1.22 285.08-1.64L285.08-1.64L285.08-1.64Q284.88-2.06 284.50-2.16L284.50-2.16L284.50-2.16Q284.11-2.26 283.95-2.96L283.95-2.96L283.95-2.96Q283.79-3.67 283.50-3.90L283.50-3.90L283.50-3.90Q283.21-4.13 282.30-4.00L282.30-4.00L282.30-4.00Q280.69-3.67 279.92-5.93L279.92-5.93L279.92-5.93Q279.73-6.45 279.53-7.28L279.53-7.28L279.53-7.28Q279.34-8.12 279.08-8.89L279.08-8.89L279.08-8.89Q278.57-10.76 277.89-10.92L277.89-10.92L277.89-10.92Q277.21-11.09 276.89-10.76L276.89-10.76L276.89-10.76Q276.57-10.44 276.41-9.89L276.41-9.89L276.41-9.89Q276.25-9.35 276.25-8.67L276.25-8.67L276.25-8.67Q276.25-7.99 276.41-7.22L276.41-7.22L276.41-7.22Q276.57-6.45 276.44-5.93L276.44-5.93L276.44-5.93Q276.31-5.41 276.08-5.09L276.08-5.09L276.08-5.09Q275.86-4.77 275.60-4.51L275.60-4.51L275.60-4.51Q275.09-4.19 274.99-3.22L274.99-3.22L274.99-3.22Q274.89-2.26 274.70-1.55L274.70-1.55L274.70-1.55Q274.31 0.19 273.67 0.64L273.67 0.64L273.67 0.64Q273.02 1.10 272.38 1.19L272.38 1.19L272.38 1.19Q271.73 1.29 271.09 1.16L271.09 1.16L271.09 1.16Q269.48 0.84 269.09 0.03L269.09 0.03L269.09 0.03Q268.71-0.77 268.64-1.19L268.64-1.19L268.64-1.19Q268.58-1.61 268.61-2.00L268.61-2.00L268.61-2.00Q268.64-2.38 268.71-2.84L268.71-2.84L268.71-2.84Q268.77-3.29 268.74-3.90L268.74-3.90L268.74-3.90Q268.71-4.51 268.45-5.54L268.45-5.54L268.45-5.54Q268.19-6.57 268.13-7.99L268.13-7.99L268.06-9.67L268.06-9.67Q268.06-9.93 268.51-10.54L268.51-10.54L268.51-10.54Q268.96-11.15 268.80-11.96L268.80-11.96L268.80-11.96Q268.64-12.76 268.06-12.99L268.06-12.99L268.06-12.99Q267.48-13.21 267.48-13.54L267.48-13.54L267.48-13.54Q267.48-13.86 267.61-15.15L267.61-15.15L267.61-15.15Q267.74-16.44 267.51-18.37L267.51-18.37L267.51-18.37Q267.29-20.30 267.22-21.79L267.22-21.79L267.22-21.79Q266.96-25.01 266.09-25.43L266.09-25.43L266.09-25.43Q265.22-25.85 265.10-26.46L265.10-26.46L265.10-26.46Q264.97-27.07 265.10-27.84L265.10-27.84L265.10-27.84Q265.22-28.62 265.39-29.78L265.39-29.78L265.39-29.78Q265.55-30.94 265.74-32.13L265.74-32.13L265.74-32.13Q265.93-33.32 266.09-34.35L266.09-34.35L266.09-34.35Q266.26-35.38 266.32-35.77L266.32-35.77L266.32-35.77Q266.38-36.16 266.35-36.51L266.35-36.51L266.35-36.51Q266.32-36.87 266.32-37.19L266.32-37.19L266.32-37.19Q266.19-38.22 266.32-38.99L266.32-38.99L266.32-38.99Q266.58-40.48 266.45-41.09L266.45-41.09L266.45-41.09Q266.32-41.70 266.67-42.96L266.67-42.96L266.67-42.96Q267.03-44.21 267.29-44.73L267.29-44.73L267.29-44.73Q267.54-45.25 268.25-45.50L268.25-45.50L268.25-45.50Q268.96-45.76 269.64-46.25L269.64-46.25L269.64-46.25Q270.32-46.73 270.90-47.21L270.90-47.21L270.90-47.21Q271.48-47.70 271.93-48.11L271.93-48.11L271.93-48.11Q272.38-48.53 273.02-48.73L273.02-48.73L273.02-48.73Q274.89-49.11 275.76-48.82L275.76-48.82L275.76-48.82Q276.63-48.53 277.02-48.21L277.02-48.21L277.02-48.21Q277.41-47.89 277.95-47.57L277.95-47.57L277.95-47.57Q278.50-47.24 279.11-47.08L279.11-47.08L279.11-47.08Q279.73-46.92 280.24-46.92L280.24-46.92L280.24-46.92Q281.60-46.79 281.89-46.57L281.89-46.57L281.89-46.57Q282.18-46.34 282.56-46.34ZM277.21-28.36L277.21-28.36L277.60-22.49L277.60-22.49Q277.60-21.91 277.54-21.37L277.54-21.37L277.54-21.37Q277.47-20.82 277.41-20.37L277.41-20.37L277.41-20.37Q277.34-19.40 278.12-19.21L278.12-19.21L278.12-19.21Q278.76-19.08 279.15-19.56L279.15-19.56L279.15-19.56Q279.53-20.04 279.86-20.88L279.86-20.88L279.86-20.88Q280.63-22.49 280.37-22.95L280.37-22.95L280.37-22.95Q279.86-23.59 280.08-24.07L280.08-24.07L280.08-24.07Q280.31-24.56 281.05-25.97L281.05-25.97L281.05-25.97Q281.79-27.39 282.14-28.42L282.14-28.42L282.14-28.42Q282.50-29.46 282.30-30.65L282.30-30.65L282.30-30.65Q282.11-31.84 282.11-32.29L282.11-32.29L282.11-33L282.11-33Q282.11-33.52 281.63-33.93L281.63-33.93L281.63-33.93Q281.14-34.35 280.95-34.39L280.95-34.39L280.95-34.39Q280.76-34.42 280.63-34.42L280.63-34.42L280.63-34.42Q280.05-34.29 279.53-34.51L279.53-34.51L279.53-34.51Q279.02-34.74 278.57-34.71L278.57-34.71L278.57-34.71Q278.12-34.68 277.54-34.10L277.54-34.10L277.54-34.10Q276.96-33.52 276.89-32.90L276.89-32.90L276.89-32.90Q276.83-32.29 276.89-31.52L276.89-31.52L276.89-31.52Q277.21-29.20 277.21-28.36ZM307.05-27.59L307.05-25.97L307.05-25.97Q307.05-24.17 308.92-24.17L308.92-24.17L308.92-24.17Q309.38-24.17 309.76-24.27L309.76-24.27L309.76-24.27Q310.15-24.36 311.08-24.56L311.08-24.56L311.08-24.56Q312.02-24.75 312.82-24.20L312.82-24.20L312.82-24.20Q313.63-23.65 314.05-23.40L314.05-23.40L314.05-23.40Q314.47-23.14 314.72-22.82L314.72-22.82L314.72-22.82Q315.18-22.24 315.14-20.66L315.14-20.66L315.14-20.66Q315.11-19.08 314.47-17.76L314.47-17.76L314.47-17.76Q313.82-16.44 311.57-16.11L311.57-16.11L311.57-16.11Q309.31-15.79 308.18-15.15L308.18-15.15L308.18-15.15Q307.05-14.50 306.83-13.02L306.83-13.02L306.83-13.02Q306.60-11.54 306.28-10.96L306.28-10.96L306.28-10.96Q305.96-10.38 305.89-9.67L305.89-9.67L305.89-9.67Q305.83-8.96 305.54-8.15L305.54-8.15L305.54-8.15Q305.25-7.35 305.35-6.64L305.35-6.64L305.35-6.64Q305.44-5.93 305.41-4.74L305.41-4.74L305.41-4.74Q305.38-3.54 305.06-2.38L305.06-2.38L305.06-2.38Q304.28 0.45 302.29 0.45L302.29 0.45L302.29 0.45Q301.51 0.45 301.09-0.35L301.09-0.35L301.09-0.35Q300.67-1.16 300.38-2.26L300.38-2.26L300.38-2.26Q300.09-3.35 299.80-4.58L299.80-4.58L299.80-4.58Q299.51-5.80 298.74-7.12L298.74-7.12L298.74-7.12Q297.97-8.44 297.87-10.12L297.87-10.12L297.87-10.12Q297.77-11.79 297.77-13.41L297.77-13.41L297.77-16.50L297.77-16.50Q297.77-22.17 296.48-23.59L296.48-23.59L296.48-23.59Q295.65-24.43 295.78-26.81L295.78-26.81L295.78-28.62L295.78-28.62Q295.78-29.58 296.10-30.16L296.10-30.16L296.10-30.16Q296.87-31.84 296.52-34.87L296.52-34.87L296.52-34.87Q296.16-37.90 295.84-39.54L295.84-39.54L295.84-39.54Q295.52-41.19 295.81-42.67L295.81-42.67L295.81-42.67Q296.10-44.15 296.19-44.99L296.19-44.99L296.19-44.99Q296.29-45.83 296.84-46.60L296.84-46.60L296.84-46.60Q297.39-47.37 297.81-47.47L297.81-47.47L297.81-47.47Q298.22-47.57 298.80-47.50L298.80-47.50L298.80-47.50Q299.58-47.44 300.16-48.02L300.16-48.02L300.16-48.02Q302.29-50.14 304.15-48.98L304.15-48.98L304.15-48.98Q304.93-48.47 305.73-47.89L305.73-47.89L305.73-47.89Q306.54-47.31 307.51-46.86L307.51-46.86L307.51-46.86Q308.47-46.41 309.73-46.54L309.73-46.54L309.73-46.54Q310.99-46.66 312.21-46.92L312.21-46.92L312.21-46.92Q313.44-47.18 314.66-47.05L314.66-47.05L314.66-47.05Q317.75-46.86 319.17-44.21L319.17-44.21L319.17-44.21Q320.14-42.41 319.91-40.44L319.91-40.44L319.91-40.44Q319.69-38.48 319.49-37.25L319.49-37.25L319.49-37.25Q319.30-36.03 319.30-35.22L319.30-35.22L319.30-35.22Q319.30-34.42 319.24-34.22L319.24-34.22L319.24-34.22Q319.17-34.03 319.11-33.90L319.11-33.90L319.11-33.90Q318.85-33.19 318.79-31.97L318.79-31.97L318.79-31.97Q318.72-30.74 318.53-30.16L318.53-30.16L318.53-30.16Q317.95-28.68 316.27-28.68L316.27-28.68L316.27-28.68Q315.18-28.68 314.40-29.07L314.40-29.07L314.40-29.07Q312.86-29.84 312.21-29.91L312.21-29.91L312.21-29.91Q311.31-30.04 310.99-30.94L310.99-30.94L310.99-30.94Q310.86-31.26 310.73-31.61L310.73-31.61L310.73-31.61Q310.60-31.97 310.34-32.26L310.34-32.26L310.34-32.26Q310.08-32.55 309.79-33.03L309.79-33.03L309.79-33.03Q309.50-33.52 308.60-33.39L308.60-33.39L308.60-33.39Q306.80-33.13 306.93-31.32L306.93-31.32L307.05-27.59ZM324.84 0.77L324.84 0.77L324.84 0.77Q324.20 0.97 323.39 0.68L323.39 0.68L323.39 0.68Q322.59 0.39 322.27-0.42L322.27-0.42L322.27-0.42Q321.94-1.22 321.85-2.29L321.85-2.29L321.85-2.29Q321.75-3.35 321.81-4.58L321.81-4.58L321.81-4.58Q321.88-5.80 321.88-6.96L321.88-6.96L321.88-6.96Q321.88-9.54 321.04-10.25L321.04-10.25L321.04-10.25Q319.30-11.54 319.62-16.82L319.62-16.82L319.62-16.82Q319.95-19.85 320.33-21.66L320.33-21.66L320.33-21.66Q320.98-24.62 320.94-26.68L320.94-26.68L320.94-26.68Q320.91-28.75 321.07-29.91L321.07-29.91L321.07-29.91Q321.23-31.07 321.46-31.84L321.46-31.84L321.46-31.84Q321.69-32.61 322.01-33.45L322.01-33.45L322.01-33.45Q322.33-34.29 322.59-36.22L322.59-36.22L322.59-36.22Q323.23-41.06 323.75-42.22L323.75-42.22L323.75-42.22Q324.46-43.83 325.46-45.54L325.46-45.54L325.46-45.54Q326.46-47.24 327.10-47.82L327.10-47.82L327.10-47.82Q328.58-48.92 331.35-48.02L331.35-48.02L331.35-48.02Q333.42-47.31 335.19-47.57L335.19-47.57L335.19-47.57Q336.96-47.82 337.90-47.79L337.90-47.79L337.90-47.79Q338.83-47.76 339.99-47.08L339.99-47.08L339.99-47.08Q341.15-46.41 341.79-45.47L341.79-45.47L341.79-45.47Q342.44-44.54 342.70-43.44L342.70-43.44L342.70-43.44Q343.15-41.57 342.76-38.70L342.76-38.70L342.76-38.70Q342.38-35.84 342.47-34.06L342.47-34.06L342.47-34.06Q342.57-32.29 343.25-30.71L343.25-30.71L343.25-30.71Q343.92-29.13 344.15-28.20L344.15-28.20L344.15-28.20Q344.37-27.26 344.53-26.33L344.53-26.33L344.53-26.33Q344.70-25.39 344.79-24.33L344.79-24.33L344.79-24.33Q344.89-23.27 345.18-21.91L345.18-21.91L345.18-21.91Q345.47-20.56 345.50-19.75L345.50-19.75L345.50-19.75Q345.53-18.95 345.47-18.43L345.47-18.43L345.47-18.43Q345.40-17.92 345.31-17.50L345.31-17.50L345.31-17.50Q345.21-17.08 345.37-16.21L345.37-16.21L345.37-16.21Q345.53-15.34 345.37-14.31L345.37-14.31L345.37-14.31Q345.21-13.28 345.02-12.31L345.02-12.31L345.02-12.31Q344.31-9.35 344.44-8.12L344.44-8.12L344.44-8.12Q344.70-5.93 344.44-5.00L344.44-5.00L344.44-5.00Q344.18-4.06 343.95-3.48L343.95-3.48L343.95-3.48Q343.73-2.90 343.44-1.87L343.44-1.87L343.44-1.87Q343.15-0.84 342.25 0L342.25 0L342.25 0Q341.34 0.84 340.54 0.52L340.54 0.52L340.54 0.52Q339.73 0.19 339.51-0.42L339.51-0.42L339.51-0.42Q339.28-1.03 339.12-1.68L339.12-1.68L339.12-1.68Q338.96-2.32 338.73-2.84L338.73-2.84L338.73-2.84Q338.51-3.35 337.93-3.42L337.93-3.42L337.93-3.42Q336.90-3.54 336.83-4.61L336.83-4.61L336.83-4.61Q336.77-5.67 336.86-6.48L336.86-6.48L336.86-6.48Q336.96-7.28 336.77-8.12L336.77-8.12L336.77-8.12Q336.57-8.96 336.12-9.73L336.12-9.73L336.12-9.73Q334.96-11.73 333.42-11.92L333.42-11.92L333.42-11.92Q331.10-12.25 330.19-9.67L330.19-9.67L330.19-9.67Q330-9.02 329.90-7.96L329.90-7.96L329.90-7.96Q329.81-6.90 329.39-6.06L329.39-6.06L329.39-6.06Q328.97-5.22 328.49-4.64L328.49-4.64L328.49-4.64Q328.00-4.06 327.58-3.58L327.58-3.58L327.58-3.58Q327.16-3.09 327.04-2.38L327.04-2.38L327.04-2.38Q326.52 0.39 324.84 0.77ZM330.58-26.23L330.58-26.23L330.58-26.23Q329.29-22.75 330.26-20.69L330.26-20.69L330.26-20.69Q330.90-19.53 331.93-19.46L331.93-19.46L331.93-19.46Q333.80-19.27 334.16-19.75L334.16-19.75L334.16-19.75Q334.51-20.24 335.00-20.79L335.00-20.79L335.00-20.79Q335.48-21.33 335.35-22.46L335.35-22.46L335.35-22.46Q335.22-23.59 335.16-24.46L335.16-24.46L335.16-24.46Q335.09-25.33 334.54-26.43L334.54-26.43L334.54-26.43Q334.00-27.52 333.80-28.78L333.80-28.78L333.80-28.78Q333.61-30.04 333.54-31.20L333.54-31.20L333.54-31.20Q333.29-33.77 332.38-33.77L332.38-33.77L332.38-33.77Q331.74-33.77 331.58-33.10L331.58-33.10L331.58-33.10Q331.42-32.42 331.35-31.32L331.35-31.32L331.35-31.32Q331.29-27.97 330.58-26.23ZM365.90-46.34L365.90-46.34L367.96-46.47L367.96-46.47Q370.15-46.47 371.09-45.76L371.09-45.76L371.09-45.76Q372.02-45.05 372.51-44.47L372.51-44.47L372.51-44.47Q372.99-43.89 373.38-43.28L373.38-43.28L373.38-43.28Q373.76-42.67 374.44-42.02L374.44-42.02L374.44-42.02Q375.12-41.38 375.12-40.51L375.12-40.51L375.12-40.51Q375.12-39.64 375.60-39.12L375.60-39.12L375.60-39.12Q376.08-38.61 376.08-37.45L376.08-37.45L376.08-37.45Q376.08-36.29 376.05-35.22L376.05-35.22L376.05-35.22Q376.02-34.16 375.83-33.48L375.83-33.48L375.83-33.48Q375.63-32.81 375.63-32.13L375.63-32.13L375.63-32.13Q375.63-31.45 375.92-30.91L375.92-30.91L375.92-30.91Q376.21-30.36 375.99-28.26L375.99-28.26L375.99-28.26Q375.76-26.17 375.28-24.04L375.28-24.04L375.28-24.04Q374.79-21.91 374.02-20.37L374.02-20.37L374.02-20.37Q372.47-17.47 368.99-15.79L368.99-15.79L368.99-15.79Q369.32-15.02 369.74-14.08L369.74-14.08L369.74-14.08Q370.15-13.15 370.54-12.18L370.54-12.18L370.54-12.18Q371.38-9.80 371.38-8.73L371.38-8.73L371.38-8.73Q371.38-7.67 371.48-7.19L371.48-7.19L371.48-7.19Q371.57-6.70 371.70-6.45L371.70-6.45L371.70-6.45Q371.83-6.19 372.06-6.06L372.06-6.06L372.06-6.06Q372.28-5.93 372.73-5.58L372.73-5.58L372.73-5.58Q373.18-5.22 373.44-4.38L373.44-4.38L373.44-4.38Q373.70-3.54 373.70-2.64L373.70-2.64L373.70-2.64Q373.70-0.58 373.22-0.10L373.22-0.10L373.22-0.10Q372.73 0.39 372.18 0.55L372.18 0.55L372.18 0.55Q371.64 0.71 371.06 0.77L371.06 0.77L371.06 0.77Q369.57 0.97 369.19 0.39L369.19 0.39L369.19 0.39Q368.67-0.13 368.64-0.68L368.64-0.68L368.64-0.68Q368.61-1.22 368.41-1.64L368.41-1.64L368.41-1.64Q368.22-2.06 367.83-2.16L367.83-2.16L367.83-2.16Q367.45-2.26 367.29-2.96L367.29-2.96L367.29-2.96Q367.13-3.67 366.83-3.90L366.83-3.90L366.83-3.90Q366.54-4.13 365.64-4.00L365.64-4.00L365.64-4.00Q364.03-3.67 363.26-5.93L363.26-5.93L363.26-5.93Q363.06-6.45 362.87-7.28L362.87-7.28L362.87-7.28Q362.68-8.12 362.42-8.89L362.42-8.89L362.42-8.89Q361.90-10.76 361.23-10.92L361.23-10.92L361.23-10.92Q360.55-11.09 360.23-10.76L360.23-10.76L360.23-10.76Q359.91-10.44 359.75-9.89L359.75-9.89L359.75-9.89Q359.58-9.35 359.58-8.67L359.58-8.67L359.58-8.67Q359.58-7.99 359.75-7.22L359.75-7.22L359.75-7.22Q359.91-6.45 359.78-5.93L359.78-5.93L359.78-5.93Q359.65-5.41 359.42-5.09L359.42-5.09L359.42-5.09Q359.20-4.77 358.94-4.51L358.94-4.51L358.94-4.51Q358.42-4.19 358.33-3.22L358.33-3.22L358.33-3.22Q358.23-2.26 358.04-1.55L358.04-1.55L358.04-1.55Q357.65 0.19 357.01 0.64L357.01 0.64L357.01 0.64Q356.36 1.10 355.72 1.19L355.72 1.19L355.72 1.19Q355.07 1.29 354.43 1.16L354.43 1.16L354.43 1.16Q352.82 0.84 352.43 0.03L352.43 0.03L352.43 0.03Q352.04-0.77 351.98-1.19L351.98-1.19L351.98-1.19Q351.91-1.61 351.95-2.00L351.95-2.00L351.95-2.00Q351.98-2.38 352.04-2.84L352.04-2.84L352.04-2.84Q352.11-3.29 352.08-3.90L352.08-3.90L352.08-3.90Q352.04-4.51 351.79-5.54L351.79-5.54L351.79-5.54Q351.53-6.57 351.46-7.99L351.46-7.99L351.40-9.67L351.40-9.67Q351.40-9.93 351.85-10.54L351.85-10.54L351.85-10.54Q352.30-11.15 352.14-11.96L352.14-11.96L352.14-11.96Q351.98-12.76 351.40-12.99L351.40-12.99L351.40-12.99Q350.82-13.21 350.82-13.54L350.82-13.54L350.82-13.54Q350.82-13.86 350.95-15.15L350.95-15.15L350.95-15.15Q351.08-16.44 350.85-18.37L350.85-18.37L350.85-18.37Q350.63-20.30 350.56-21.79L350.56-21.79L350.56-21.79Q350.30-25.01 349.43-25.43L349.43-25.43L349.43-25.43Q348.56-25.85 348.43-26.46L348.43-26.46L348.43-26.46Q348.30-27.07 348.43-27.84L348.43-27.84L348.43-27.84Q348.56-28.62 348.72-29.78L348.72-29.78L348.72-29.78Q348.88-30.94 349.08-32.13L349.08-32.13L349.08-32.13Q349.27-33.32 349.43-34.35L349.43-34.35L349.43-34.35Q349.59-35.38 349.66-35.77L349.66-35.77L349.66-35.77Q349.72-36.16 349.69-36.51L349.69-36.51L349.69-36.51Q349.66-36.87 349.66-37.19L349.66-37.19L349.66-37.19Q349.53-38.22 349.66-38.99L349.66-38.99L349.66-38.99Q349.92-40.48 349.79-41.09L349.79-41.09L349.79-41.09Q349.66-41.70 350.01-42.96L350.01-42.96L350.01-42.96Q350.37-44.21 350.63-44.73L350.63-44.73L350.63-44.73Q350.88-45.25 351.59-45.50L351.59-45.50L351.59-45.50Q352.30-45.76 352.98-46.25L352.98-46.25L352.98-46.25Q353.65-46.73 354.23-47.21L354.23-47.21L354.23-47.21Q354.81-47.70 355.27-48.11L355.27-48.11L355.27-48.11Q355.72-48.53 356.36-48.73L356.36-48.73L356.36-48.73Q358.23-49.11 359.10-48.82L359.10-48.82L359.10-48.82Q359.97-48.53 360.36-48.21L360.36-48.21L360.36-48.21Q360.74-47.89 361.29-47.57L361.29-47.57L361.29-47.57Q361.84-47.24 362.45-47.08L362.45-47.08L362.45-47.08Q363.06-46.92 363.58-46.92L363.58-46.92L363.58-46.92Q364.93-46.79 365.22-46.57L365.22-46.57L365.22-46.57Q365.51-46.34 365.90-46.34ZM360.55-28.36L360.55-28.36L360.94-22.49L360.94-22.49Q360.94-21.91 360.87-21.37L360.87-21.37L360.87-21.37Q360.81-20.82 360.74-20.37L360.74-20.37L360.74-20.37Q360.68-19.40 361.45-19.21L361.45-19.21L361.45-19.21Q362.10-19.08 362.48-19.56L362.48-19.56L362.48-19.56Q362.87-20.04 363.19-20.88L363.19-20.88L363.19-20.88Q363.97-22.49 363.71-22.95L363.71-22.95L363.71-22.95Q363.19-23.59 363.42-24.07L363.42-24.07L363.42-24.07Q363.64-24.56 364.39-25.97L364.39-25.97L364.39-25.97Q365.13-27.39 365.48-28.42L365.48-28.42L365.48-28.42Q365.84-29.46 365.64-30.65L365.64-30.65L365.64-30.65Q365.45-31.84 365.45-32.29L365.45-32.29L365.45-33L365.45-33Q365.45-33.52 364.97-33.93L364.97-33.93L364.97-33.93Q364.48-34.35 364.29-34.39L364.29-34.39L364.29-34.39Q364.10-34.42 363.97-34.42L363.97-34.42L363.97-34.42Q363.39-34.29 362.87-34.51L362.87-34.51L362.87-34.51Q362.36-34.74 361.90-34.71L361.90-34.71L361.90-34.71Q361.45-34.68 360.87-34.10L360.87-34.10L360.87-34.10Q360.29-33.52 360.23-32.90L360.23-32.90L360.23-32.90Q360.16-32.29 360.23-31.52L360.23-31.52L360.23-31.52Q360.55-29.20 360.55-28.36ZM380.60-12.12L380.60-12.12L380.53-15.40L380.53-15.40Q380.53-16.31 380.60-17.08L380.60-17.08L380.60-17.08Q380.66-17.92 380.47-19.14L380.47-19.14L380.47-19.14Q380.14-21.27 380.18-22.27L380.18-22.27L380.18-22.27Q380.21-23.27 380.18-23.88L380.18-23.88L380.18-23.88Q380.14-24.49 380.02-25.01L380.02-25.01L380.02-25.01Q379.82-25.78 379.08-27.46L379.08-27.46L379.08-27.46Q378.34-29.13 378.34-31.07L378.34-31.07L378.34-31.07Q378.34-33 379.18-34.16L379.18-34.16L379.18-34.16Q379.95-35.32 379.76-36.54L379.76-36.54L379.76-36.54Q379.56-37.77 379.47-39.16L379.47-39.16L379.47-39.16Q379.37-40.54 379.44-41.99L379.44-41.99L379.44-41.99Q379.50-43.44 380.08-44.79L380.08-44.79L380.08-44.79Q381.50-48.08 385.75-47.95L385.75-47.95L385.75-47.95Q388.39-47.89 390.33-47.44L390.33-47.44L390.33-47.44Q392.26-46.99 393.16-47.05L393.16-47.05L393.16-47.05Q394.07-47.12 395.94-47.70L395.94-47.70L395.94-47.70Q398.64-48.73 400.25-47.57L400.25-47.57L400.25-47.57Q400.71-47.24 401.12-47.08L401.12-47.08L401.12-47.08Q401.54-46.92 401.87-46.60L401.87-46.60L401.87-46.60Q402.96-45.38 402.51-41.25L402.51-41.25L402.51-41.25Q402.38-40.03 402.25-38.80L402.25-38.80L402.25-38.80Q401.93-35.90 402.25-34.48L402.25-34.48L402.25-34.48Q402.57-33.06 402.61-32.00L402.61-32.00L402.61-32.00Q402.64-30.94 402.51-30.10L402.51-30.10L402.51-30.10Q402.12-28.23 401.03-28.23L401.03-28.23L401.03-28.23Q400.06-28.29 399.64-28.84L399.64-28.84L399.64-28.84Q399.22-29.39 398.96-30.07L398.96-30.07L398.96-30.07Q398.71-30.74 398.42-31.29L398.42-31.29L398.42-31.29Q398.13-31.84 397.16-31.84L397.16-31.84L397.16-31.84Q394.32-31.84 393.39-32.45L393.39-32.45L393.39-32.45Q392.46-33.06 391.75-33.16L391.75-33.16L391.75-33.16Q391.04-33.26 390.39-33L390.39-33L390.39-33Q389.04-32.42 388.81-30.87L388.81-30.87L388.81-30.87Q388.59-29.33 388.52-28.17L388.52-28.17L388.52-28.17Q388.46-27.01 388.52-26.04L388.52-26.04L388.52-26.04Q388.65-23.78 389.39-23.49L389.39-23.49L389.39-23.49Q390.13-23.20 390.65-23.43L390.65-23.43L390.65-23.43Q391.17-23.65 391.68-23.98L391.68-23.98L391.68-23.98Q393.23-25.01 394.87-24.98L394.87-24.98L394.87-24.98Q396.52-24.94 397.32-23.65L397.32-23.65L397.32-23.65Q398.13-22.37 398.00-21.17L398.00-21.17L398.00-21.17Q397.87-19.98 397.77-18.82L397.77-18.82L397.77-18.82Q397.68-17.66 397.48-16.63L397.48-16.63L397.48-16.63Q396.58-12.63 393.74-15.08L393.74-15.08L393.74-15.08Q390.07-15.34 389.17-14.18L389.17-14.18L389.17-14.18Q388.97-13.86 388.78-12.83L388.78-12.83L388.78-12.83Q388.59-11.79 388.72-10.63L388.72-10.63L388.72-10.63Q389.04-7.61 391.62-7.41L391.62-7.41L391.62-7.41Q393.29-7.28 394.68-7.86L394.68-7.86L394.68-7.86Q396.06-8.44 396.52-9.15L396.52-9.15L396.52-9.15Q396.90-9.93 397.48-10.02L397.48-10.02L397.48-10.02Q398.06-10.12 398.51-10.22L398.51-10.22L398.51-10.22Q398.96-10.31 399.42-10.31L399.42-10.31L399.42-10.31Q399.87-10.31 400.32-10.18L400.32-10.18L400.32-10.18Q401.48-9.80 401.70-8.38L401.70-8.38L401.70-8.38Q401.93-6.96 401.41-5.80L401.41-5.80L401.41-5.80Q400.90-4.64 400.74-3.71L400.74-3.71L400.74-3.71Q400.58-2.77 400.45-2.32L400.45-2.32L400.45-2.32Q400.32-1.87 399.71-1.19L399.71-1.19L399.71-1.19Q399.09-0.52 398.74-0.06L398.74-0.06L398.74-0.06Q398.38 0.39 397.61-0.26L397.61-0.26L397.61-0.26Q396.19-1.35 394.20 1.03L394.20 1.03L394.20 1.03Q393.68 1.74 393.10 2.06L393.10 2.06L393.10 2.06Q392.52 2.38 391.29 2.32L391.29 2.32L391.29 2.32Q390.07 2.26 389.36 1.68L389.36 1.68L389.36 1.68Q388.65 1.10 388.07 0.52L388.07 0.52L388.07 0.52Q387.11-0.71 384.72-0.39L384.72-0.39L384.72-0.39Q383.30-0.19 382.40-1.61L382.40-1.61L382.40-1.61Q382.21-1.80 382.11-2.32L382.11-2.32L382.11-2.32Q382.01-2.84 381.88-3.48L381.88-3.48L381.88-3.48Q381.43-5.16 381.08-5.64L381.08-5.64L381.08-5.64Q380.72-6.12 380.69-6.90L380.69-6.90L380.69-6.90Q380.66-7.67 380.53-8.54L380.53-8.54L380.53-8.54Q380.40-9.41 380.34-9.83L380.34-9.83L380.34-9.83Q380.27-10.25 380.43-10.83L380.43-10.83L380.43-10.83Q380.60-11.41 380.60-12.12Z" fill="#87ab69"></path></g></g><style>text {
  font-size: 64px;
  font-family: Arial Black;
  dominant-baseline: central;
  text-anchor: middle;
}</style></svg>